<svg xmlns="http://www.w3.org/2000/svg" width="1200" height="630" viewBox="0 0 1200 630">
  <defs>
    <linearGradient id="g1" x1="0" y1="0" x2="1" y2="0">
      <stop offset="0" stop-color="#22a15e"/><stop offset="1" stop-color="#efab4d"/>
    </linearGradient>
    <linearGradient id="bg" x1="0" y1="0" x2="1" y2="1">
      <stop offset="0" stop-color="#22323e"/><stop offset="1" stop-color="#2b3a47"/>
    </linearGradient>
  </defs>
  <rect width="1200" height="630" fill="url(#bg)"/>
  <circle cx="40" cy="40" r="1.3" fill="#ffffff" opacity="0.05"/><circle cx="40" cy="80" r="1.3" fill="#ffffff" opacity="0.05"/><circle cx="40" cy="120" r="1.3" fill="#ffffff" opacity="0.05"/><circle cx="40" cy="160" r="1.3" fill="#ffffff" opacity="0.05"/><circle cx="40" cy="200" r="1.3" fill="#ffffff" opacity="0.05"/><circle cx="40" cy="240" r="1.3" fill="#ffffff" opacity="0.05"/><circle cx="40" cy="280" r="1.3" fill="#ffffff" opacity="0.05"/><circle cx="40" cy="320" r="1.3" fill="#ffffff" opacity="0.05"/><circle cx="40" cy="360" r="1.3" fill="#ffffff" opacity="0.05"/><circle cx="40" cy="400" r="1.3" fill="#ffffff" opacity="0.05"/><circle cx="40" cy="440" r="1.3" fill="#ffffff" opacity="0.05"/><circle cx="40" cy="480" r="1.3" fill="#ffffff" opacity="0.05"/><circle cx="40" cy="520" r="1.3" fill="#ffffff" opacity="0.05"/><circle cx="40" cy="560" r="1.3" fill="#ffffff" opacity="0.05"/><circle cx="40" cy="600" r="1.3" fill="#ffffff" opacity="0.05"/><circle cx="80" cy="40" r="1.3" fill="#ffffff" opacity="0.05"/><circle cx="80" cy="80" r="1.3" fill="#ffffff" opacity="0.05"/><circle cx="80" cy="120" r="1.3" fill="#ffffff" opacity="0.05"/><circle cx="80" cy="160" r="1.3" fill="#ffffff" opacity="0.05"/><circle cx="80" cy="200" r="1.3" fill="#ffffff" opacity="0.05"/><circle cx="80" cy="240" r="1.3" fill="#ffffff" opacity="0.05"/><circle cx="80" cy="280" r="1.3" fill="#ffffff" opacity="0.05"/><circle cx="80" cy="320" r="1.3" fill="#ffffff" opacity="0.05"/><circle cx="80" cy="360" r="1.3" fill="#ffffff" opacity="0.05"/><circle cx="80" cy="400" r="1.3" fill="#ffffff" opacity="0.05"/><circle cx="80" cy="440" r="1.3" fill="#ffffff" opacity="0.05"/><circle cx="80" cy="480" r="1.3" fill="#ffffff" opacity="0.05"/><circle cx="80" cy="520" r="1.3" fill="#ffffff" opacity="0.05"/><circle cx="80" cy="560" r="1.3" fill="#ffffff" opacity="0.05"/><circle cx="80" cy="600" r="1.3" fill="#ffffff" opacity="0.05"/><circle cx="120" cy="40" r="1.3" fill="#ffffff" opacity="0.05"/><circle cx="120" cy="80" r="1.3" fill="#ffffff" opacity="0.05"/><circle cx="120" cy="120" r="1.3" fill="#ffffff" opacity="0.05"/><circle cx="120" cy="160" r="1.3" fill="#ffffff" opacity="0.05"/><circle cx="120" cy="200" r="1.3" fill="#ffffff" opacity="0.05"/><circle cx="120" cy="240" r="1.3" fill="#ffffff" opacity="0.05"/><circle cx="120" cy="280" r="1.3" fill="#ffffff" opacity="0.05"/><circle cx="120" cy="320" r="1.3" fill="#ffffff" opacity="0.05"/><circle cx="120" cy="360" r="1.3" fill="#ffffff" opacity="0.05"/><circle cx="120" cy="400" r="1.3" fill="#ffffff" opacity="0.05"/><circle cx="120" cy="440" r="1.3" fill="#ffffff" opacity="0.05"/><circle cx="120" cy="480" r="1.3" fill="#ffffff" opacity="0.05"/><circle cx="120" cy="520" r="1.3" fill="#ffffff" opacity="0.05"/><circle cx="120" cy="560" r="1.3" fill="#ffffff" opacity="0.05"/><circle cx="120" cy="600" r="1.3" fill="#ffffff" opacity="0.05"/><circle cx="160" cy="40" r="1.3" fill="#ffffff" opacity="0.05"/><circle cx="160" cy="80" r="1.3" fill="#ffffff" opacity="0.05"/><circle cx="160" cy="120" r="1.3" fill="#ffffff" opacity="0.05"/><circle cx="160" cy="160" r="1.3" fill="#ffffff" opacity="0.05"/><circle cx="160" cy="200" r="1.3" fill="#ffffff" opacity="0.05"/><circle cx="160" cy="240" r="1.3" fill="#ffffff" opacity="0.05"/><circle cx="160" cy="280" r="1.3" fill="#ffffff" opacity="0.05"/><circle cx="160" cy="320" r="1.3" fill="#ffffff" opacity="0.05"/><circle cx="160" cy="360" r="1.3" fill="#ffffff" opacity="0.05"/><circle cx="160" cy="400" r="1.3" fill="#ffffff" opacity="0.05"/><circle cx="160" cy="440" r="1.3" fill="#ffffff" opacity="0.05"/><circle cx="160" cy="480" r="1.3" fill="#ffffff" opacity="0.05"/><circle cx="160" cy="520" r="1.3" fill="#ffffff" opacity="0.05"/><circle cx="160" cy="560" r="1.3" fill="#ffffff" opacity="0.05"/><circle cx="160" cy="600" r="1.3" fill="#ffffff" opacity="0.05"/><circle cx="200" cy="40" r="1.3" fill="#ffffff" opacity="0.05"/><circle cx="200" cy="80" r="1.3" fill="#ffffff" opacity="0.05"/><circle cx="200" cy="120" r="1.3" fill="#ffffff" opacity="0.05"/><circle cx="200" cy="160" r="1.3" fill="#ffffff" opacity="0.05"/><circle cx="200" cy="200" r="1.3" fill="#ffffff" opacity="0.05"/><circle cx="200" cy="240" r="1.3" fill="#ffffff" opacity="0.05"/><circle cx="200" cy="280" r="1.3" fill="#ffffff" opacity="0.05"/><circle cx="200" cy="320" r="1.3" fill="#ffffff" opacity="0.05"/><circle cx="200" cy="360" r="1.3" fill="#ffffff" opacity="0.05"/><circle cx="200" cy="400" r="1.3" fill="#ffffff" opacity="0.05"/><circle cx="200" cy="440" r="1.3" fill="#ffffff" opacity="0.05"/><circle cx="200" cy="480" r="1.3" fill="#ffffff" opacity="0.05"/><circle cx="200" cy="520" r="1.3" fill="#ffffff" opacity="0.05"/><circle cx="200" cy="560" r="1.3" fill="#ffffff" opacity="0.05"/><circle cx="200" cy="600" r="1.3" fill="#ffffff" opacity="0.05"/><circle cx="240" cy="40" r="1.3" fill="#ffffff" opacity="0.05"/><circle cx="240" cy="80" r="1.3" fill="#ffffff" opacity="0.05"/><circle cx="240" cy="120" r="1.3" fill="#ffffff" opacity="0.05"/><circle cx="240" cy="160" r="1.3" fill="#ffffff" opacity="0.05"/><circle cx="240" cy="200" r="1.3" fill="#ffffff" opacity="0.05"/><circle cx="240" cy="240" r="1.3" fill="#ffffff" opacity="0.05"/><circle cx="240" cy="280" r="1.3" fill="#ffffff" opacity="0.05"/><circle cx="240" cy="320" r="1.3" fill="#ffffff" opacity="0.05"/><circle cx="240" cy="360" r="1.3" fill="#ffffff" opacity="0.05"/><circle cx="240" cy="400" r="1.3" fill="#ffffff" opacity="0.05"/><circle cx="240" cy="440" r="1.3" fill="#ffffff" opacity="0.05"/><circle cx="240" cy="480" r="1.3" fill="#ffffff" opacity="0.05"/><circle cx="240" cy="520" r="1.3" fill="#ffffff" opacity="0.05"/><circle cx="240" cy="560" r="1.3" fill="#ffffff" opacity="0.05"/><circle cx="240" cy="600" r="1.3" fill="#ffffff" opacity="0.05"/><circle cx="280" cy="40" r="1.3" fill="#ffffff" opacity="0.05"/><circle cx="280" cy="80" r="1.3" fill="#ffffff" opacity="0.05"/><circle cx="280" cy="120" r="1.3" fill="#ffffff" opacity="0.05"/><circle cx="280" cy="160" r="1.3" fill="#ffffff" opacity="0.05"/><circle cx="280" cy="200" r="1.3" fill="#ffffff" opacity="0.05"/><circle cx="280" cy="240" r="1.3" fill="#ffffff" opacity="0.05"/><circle cx="280" cy="280" r="1.3" fill="#ffffff" opacity="0.05"/><circle cx="280" cy="320" r="1.3" fill="#ffffff" opacity="0.05"/><circle cx="280" cy="360" r="1.3" fill="#ffffff" opacity="0.05"/><circle cx="280" cy="400" r="1.3" fill="#ffffff" opacity="0.05"/><circle cx="280" cy="440" r="1.3" fill="#ffffff" opacity="0.05"/><circle cx="280" cy="480" r="1.3" fill="#ffffff" opacity="0.05"/><circle cx="280" cy="520" r="1.3" fill="#ffffff" opacity="0.05"/><circle cx="280" cy="560" r="1.3" fill="#ffffff" opacity="0.05"/><circle cx="280" cy="600" r="1.3" fill="#ffffff" opacity="0.05"/><circle cx="320" cy="40" r="1.3" fill="#ffffff" opacity="0.05"/><circle cx="320" cy="80" r="1.3" fill="#ffffff" opacity="0.05"/><circle cx="320" cy="120" r="1.3" fill="#ffffff" opacity="0.05"/><circle cx="320" cy="160" r="1.3" fill="#ffffff" opacity="0.05"/><circle cx="320" cy="200" r="1.3" fill="#ffffff" opacity="0.05"/><circle cx="320" cy="240" r="1.3" fill="#ffffff" opacity="0.05"/><circle cx="320" cy="280" r="1.3" fill="#ffffff" opacity="0.05"/><circle cx="320" cy="320" r="1.3" fill="#ffffff" opacity="0.05"/><circle cx="320" cy="360" r="1.3" fill="#ffffff" opacity="0.05"/><circle cx="320" cy="400" r="1.3" fill="#ffffff" opacity="0.05"/><circle cx="320" cy="440" r="1.3" fill="#ffffff" opacity="0.05"/><circle cx="320" cy="480" r="1.3" fill="#ffffff" opacity="0.05"/><circle cx="320" cy="520" r="1.3" fill="#ffffff" opacity="0.05"/><circle cx="320" cy="560" r="1.3" fill="#ffffff" opacity="0.05"/><circle cx="320" cy="600" r="1.3" fill="#ffffff" opacity="0.05"/><circle cx="360" cy="40" r="1.3" fill="#ffffff" opacity="0.05"/><circle cx="360" cy="80" r="1.3" fill="#ffffff" opacity="0.05"/><circle cx="360" cy="120" r="1.3" fill="#ffffff" opacity="0.05"/><circle cx="360" cy="160" r="1.3" fill="#ffffff" opacity="0.05"/><circle cx="360" cy="200" r="1.3" fill="#ffffff" opacity="0.05"/><circle cx="360" cy="240" r="1.3" fill="#ffffff" opacity="0.05"/><circle cx="360" cy="280" r="1.3" fill="#ffffff" opacity="0.05"/><circle cx="360" cy="320" r="1.3" fill="#ffffff" opacity="0.05"/><circle cx="360" cy="360" r="1.3" fill="#ffffff" opacity="0.05"/><circle cx="360" cy="400" r="1.3" fill="#ffffff" opacity="0.05"/><circle cx="360" cy="440" r="1.3" fill="#ffffff" opacity="0.05"/><circle cx="360" cy="480" r="1.3" fill="#ffffff" opacity="0.05"/><circle cx="360" cy="520" r="1.3" fill="#ffffff" opacity="0.05"/><circle cx="360" cy="560" r="1.3" fill="#ffffff" opacity="0.05"/><circle cx="360" cy="600" r="1.3" fill="#ffffff" opacity="0.05"/><circle cx="400" cy="40" r="1.3" fill="#ffffff" opacity="0.05"/><circle cx="400" cy="80" r="1.3" fill="#ffffff" opacity="0.05"/><circle cx="400" cy="120" r="1.3" fill="#ffffff" opacity="0.05"/><circle cx="400" cy="160" r="1.3" fill="#ffffff" opacity="0.05"/><circle cx="400" cy="200" r="1.3" fill="#ffffff" opacity="0.05"/><circle cx="400" cy="240" r="1.3" fill="#ffffff" opacity="0.05"/><circle cx="400" cy="280" r="1.3" fill="#ffffff" opacity="0.05"/><circle cx="400" cy="320" r="1.3" fill="#ffffff" opacity="0.05"/><circle cx="400" cy="360" r="1.3" fill="#ffffff" opacity="0.05"/><circle cx="400" cy="400" r="1.3" fill="#ffffff" opacity="0.05"/><circle cx="400" cy="440" r="1.3" fill="#ffffff" opacity="0.05"/><circle cx="400" cy="480" r="1.3" fill="#ffffff" opacity="0.05"/><circle cx="400" cy="520" r="1.3" fill="#ffffff" opacity="0.05"/><circle cx="400" cy="560" r="1.3" fill="#ffffff" opacity="0.05"/><circle cx="400" cy="600" r="1.3" fill="#ffffff" opacity="0.05"/><circle cx="440" cy="40" r="1.3" fill="#ffffff" opacity="0.05"/><circle cx="440" cy="80" r="1.3" fill="#ffffff" opacity="0.05"/><circle cx="440" cy="120" r="1.3" fill="#ffffff" opacity="0.05"/><circle cx="440" cy="160" r="1.3" fill="#ffffff" opacity="0.05"/><circle cx="440" cy="200" r="1.3" fill="#ffffff" opacity="0.05"/><circle cx="440" cy="240" r="1.3" fill="#ffffff" opacity="0.05"/><circle cx="440" cy="280" r="1.3" fill="#ffffff" opacity="0.05"/><circle cx="440" cy="320" r="1.3" fill="#ffffff" opacity="0.05"/><circle cx="440" cy="360" r="1.3" fill="#ffffff" opacity="0.05"/><circle cx="440" cy="400" r="1.3" fill="#ffffff" opacity="0.05"/><circle cx="440" cy="440" r="1.3" fill="#ffffff" opacity="0.05"/><circle cx="440" cy="480" r="1.3" fill="#ffffff" opacity="0.05"/><circle cx="440" cy="520" r="1.3" fill="#ffffff" opacity="0.05"/><circle cx="440" cy="560" r="1.3" fill="#ffffff" opacity="0.05"/><circle cx="440" cy="600" r="1.3" fill="#ffffff" opacity="0.05"/><circle cx="480" cy="40" r="1.3" fill="#ffffff" opacity="0.05"/><circle cx="480" cy="80" r="1.3" fill="#ffffff" opacity="0.05"/><circle cx="480" cy="120" r="1.3" fill="#ffffff" opacity="0.05"/><circle cx="480" cy="160" r="1.3" fill="#ffffff" opacity="0.05"/><circle cx="480" cy="200" r="1.3" fill="#ffffff" opacity="0.05"/><circle cx="480" cy="240" r="1.3" fill="#ffffff" opacity="0.05"/><circle cx="480" cy="280" r="1.3" fill="#ffffff" opacity="0.05"/><circle cx="480" cy="320" r="1.3" fill="#ffffff" opacity="0.05"/><circle cx="480" cy="360" r="1.3" fill="#ffffff" opacity="0.05"/><circle cx="480" cy="400" r="1.3" fill="#ffffff" opacity="0.05"/><circle cx="480" cy="440" r="1.3" fill="#ffffff" opacity="0.05"/><circle cx="480" cy="480" r="1.3" fill="#ffffff" opacity="0.05"/><circle cx="480" cy="520" r="1.3" fill="#ffffff" opacity="0.05"/><circle cx="480" cy="560" r="1.3" fill="#ffffff" opacity="0.05"/><circle cx="480" cy="600" r="1.3" fill="#ffffff" opacity="0.05"/><circle cx="520" cy="40" r="1.3" fill="#ffffff" opacity="0.05"/><circle cx="520" cy="80" r="1.3" fill="#ffffff" opacity="0.05"/><circle cx="520" cy="120" r="1.3" fill="#ffffff" opacity="0.05"/><circle cx="520" cy="160" r="1.3" fill="#ffffff" opacity="0.05"/><circle cx="520" cy="200" r="1.3" fill="#ffffff" opacity="0.05"/><circle cx="520" cy="240" r="1.3" fill="#ffffff" opacity="0.05"/><circle cx="520" cy="280" r="1.3" fill="#ffffff" opacity="0.05"/><circle cx="520" cy="320" r="1.3" fill="#ffffff" opacity="0.05"/><circle cx="520" cy="360" r="1.3" fill="#ffffff" opacity="0.05"/><circle cx="520" cy="400" r="1.3" fill="#ffffff" opacity="0.05"/><circle cx="520" cy="440" r="1.3" fill="#ffffff" opacity="0.05"/><circle cx="520" cy="480" r="1.3" fill="#ffffff" opacity="0.05"/><circle cx="520" cy="520" r="1.3" fill="#ffffff" opacity="0.05"/><circle cx="520" cy="560" r="1.3" fill="#ffffff" opacity="0.05"/><circle cx="520" cy="600" r="1.3" fill="#ffffff" opacity="0.05"/><circle cx="560" cy="40" r="1.3" fill="#ffffff" opacity="0.05"/><circle cx="560" cy="80" r="1.3" fill="#ffffff" opacity="0.05"/><circle cx="560" cy="120" r="1.3" fill="#ffffff" opacity="0.05"/><circle cx="560" cy="160" r="1.3" fill="#ffffff" opacity="0.05"/><circle cx="560" cy="200" r="1.3" fill="#ffffff" opacity="0.05"/><circle cx="560" cy="240" r="1.3" fill="#ffffff" opacity="0.05"/><circle cx="560" cy="280" r="1.3" fill="#ffffff" opacity="0.05"/><circle cx="560" cy="320" r="1.3" fill="#ffffff" opacity="0.05"/><circle cx="560" cy="360" r="1.3" fill="#ffffff" opacity="0.05"/><circle cx="560" cy="400" r="1.3" fill="#ffffff" opacity="0.05"/><circle cx="560" cy="440" r="1.3" fill="#ffffff" opacity="0.05"/><circle cx="560" cy="480" r="1.3" fill="#ffffff" opacity="0.05"/><circle cx="560" cy="520" r="1.3" fill="#ffffff" opacity="0.05"/><circle cx="560" cy="560" r="1.3" fill="#ffffff" opacity="0.05"/><circle cx="560" cy="600" r="1.3" fill="#ffffff" opacity="0.05"/><circle cx="600" cy="40" r="1.3" fill="#ffffff" opacity="0.05"/><circle cx="600" cy="80" r="1.3" fill="#ffffff" opacity="0.05"/><circle cx="600" cy="120" r="1.3" fill="#ffffff" opacity="0.05"/><circle cx="600" cy="160" r="1.3" fill="#ffffff" opacity="0.05"/><circle cx="600" cy="200" r="1.3" fill="#ffffff" opacity="0.05"/><circle cx="600" cy="240" r="1.3" fill="#ffffff" opacity="0.05"/><circle cx="600" cy="280" r="1.3" fill="#ffffff" opacity="0.05"/><circle cx="600" cy="320" r="1.3" fill="#ffffff" opacity="0.05"/><circle cx="600" cy="360" r="1.3" fill="#ffffff" opacity="0.05"/><circle cx="600" cy="400" r="1.3" fill="#ffffff" opacity="0.05"/><circle cx="600" cy="440" r="1.3" fill="#ffffff" opacity="0.05"/><circle cx="600" cy="480" r="1.3" fill="#ffffff" opacity="0.05"/><circle cx="600" cy="520" r="1.3" fill="#ffffff" opacity="0.05"/><circle cx="600" cy="560" r="1.3" fill="#ffffff" opacity="0.05"/><circle cx="600" cy="600" r="1.3" fill="#ffffff" opacity="0.05"/><circle cx="640" cy="40" r="1.3" fill="#ffffff" opacity="0.05"/><circle cx="640" cy="80" r="1.3" fill="#ffffff" opacity="0.05"/><circle cx="640" cy="120" r="1.3" fill="#ffffff" opacity="0.05"/><circle cx="640" cy="160" r="1.3" fill="#ffffff" opacity="0.05"/><circle cx="640" cy="200" r="1.3" fill="#ffffff" opacity="0.05"/><circle cx="640" cy="240" r="1.3" fill="#ffffff" opacity="0.05"/><circle cx="640" cy="280" r="1.3" fill="#ffffff" opacity="0.05"/><circle cx="640" cy="320" r="1.3" fill="#ffffff" opacity="0.05"/><circle cx="640" cy="360" r="1.3" fill="#ffffff" opacity="0.05"/><circle cx="640" cy="400" r="1.3" fill="#ffffff" opacity="0.05"/><circle cx="640" cy="440" r="1.3" fill="#ffffff" opacity="0.05"/><circle cx="640" cy="480" r="1.3" fill="#ffffff" opacity="0.05"/><circle cx="640" cy="520" r="1.3" fill="#ffffff" opacity="0.05"/><circle cx="640" cy="560" r="1.3" fill="#ffffff" opacity="0.05"/><circle cx="640" cy="600" r="1.3" fill="#ffffff" opacity="0.05"/><circle cx="680" cy="40" r="1.3" fill="#ffffff" opacity="0.05"/><circle cx="680" cy="80" r="1.3" fill="#ffffff" opacity="0.05"/><circle cx="680" cy="120" r="1.3" fill="#ffffff" opacity="0.05"/><circle cx="680" cy="160" r="1.3" fill="#ffffff" opacity="0.05"/><circle cx="680" cy="200" r="1.3" fill="#ffffff" opacity="0.05"/><circle cx="680" cy="240" r="1.3" fill="#ffffff" opacity="0.05"/><circle cx="680" cy="280" r="1.3" fill="#ffffff" opacity="0.05"/><circle cx="680" cy="320" r="1.3" fill="#ffffff" opacity="0.05"/><circle cx="680" cy="360" r="1.3" fill="#ffffff" opacity="0.05"/><circle cx="680" cy="400" r="1.3" fill="#ffffff" opacity="0.05"/><circle cx="680" cy="440" r="1.3" fill="#ffffff" opacity="0.05"/><circle cx="680" cy="480" r="1.3" fill="#ffffff" opacity="0.05"/><circle cx="680" cy="520" r="1.3" fill="#ffffff" opacity="0.05"/><circle cx="680" cy="560" r="1.3" fill="#ffffff" opacity="0.05"/><circle cx="680" cy="600" r="1.3" fill="#ffffff" opacity="0.05"/><circle cx="720" cy="40" r="1.3" fill="#ffffff" opacity="0.05"/><circle cx="720" cy="80" r="1.3" fill="#ffffff" opacity="0.05"/><circle cx="720" cy="120" r="1.3" fill="#ffffff" opacity="0.05"/><circle cx="720" cy="160" r="1.3" fill="#ffffff" opacity="0.05"/><circle cx="720" cy="200" r="1.3" fill="#ffffff" opacity="0.05"/><circle cx="720" cy="240" r="1.3" fill="#ffffff" opacity="0.05"/><circle cx="720" cy="280" r="1.3" fill="#ffffff" opacity="0.05"/><circle cx="720" cy="320" r="1.3" fill="#ffffff" opacity="0.05"/><circle cx="720" cy="360" r="1.3" fill="#ffffff" opacity="0.05"/><circle cx="720" cy="400" r="1.3" fill="#ffffff" opacity="0.05"/><circle cx="720" cy="440" r="1.3" fill="#ffffff" opacity="0.05"/><circle cx="720" cy="480" r="1.3" fill="#ffffff" opacity="0.05"/><circle cx="720" cy="520" r="1.3" fill="#ffffff" opacity="0.05"/><circle cx="720" cy="560" r="1.3" fill="#ffffff" opacity="0.05"/><circle cx="720" cy="600" r="1.3" fill="#ffffff" opacity="0.05"/><circle cx="760" cy="40" r="1.3" fill="#ffffff" opacity="0.05"/><circle cx="760" cy="80" r="1.3" fill="#ffffff" opacity="0.05"/><circle cx="760" cy="120" r="1.3" fill="#ffffff" opacity="0.05"/><circle cx="760" cy="160" r="1.3" fill="#ffffff" opacity="0.05"/><circle cx="760" cy="200" r="1.3" fill="#ffffff" opacity="0.05"/><circle cx="760" cy="240" r="1.3" fill="#ffffff" opacity="0.05"/><circle cx="760" cy="280" r="1.3" fill="#ffffff" opacity="0.05"/><circle cx="760" cy="320" r="1.3" fill="#ffffff" opacity="0.05"/><circle cx="760" cy="360" r="1.3" fill="#ffffff" opacity="0.05"/><circle cx="760" cy="400" r="1.3" fill="#ffffff" opacity="0.05"/><circle cx="760" cy="440" r="1.3" fill="#ffffff" opacity="0.05"/><circle cx="760" cy="480" r="1.3" fill="#ffffff" opacity="0.05"/><circle cx="760" cy="520" r="1.3" fill="#ffffff" opacity="0.05"/><circle cx="760" cy="560" r="1.3" fill="#ffffff" opacity="0.05"/><circle cx="760" cy="600" r="1.3" fill="#ffffff" opacity="0.05"/><circle cx="800" cy="40" r="1.3" fill="#ffffff" opacity="0.05"/><circle cx="800" cy="80" r="1.3" fill="#ffffff" opacity="0.05"/><circle cx="800" cy="120" r="1.3" fill="#ffffff" opacity="0.05"/><circle cx="800" cy="160" r="1.3" fill="#ffffff" opacity="0.05"/><circle cx="800" cy="200" r="1.3" fill="#ffffff" opacity="0.05"/><circle cx="800" cy="240" r="1.3" fill="#ffffff" opacity="0.05"/><circle cx="800" cy="280" r="1.3" fill="#ffffff" opacity="0.05"/><circle cx="800" cy="320" r="1.3" fill="#ffffff" opacity="0.05"/><circle cx="800" cy="360" r="1.3" fill="#ffffff" opacity="0.05"/><circle cx="800" cy="400" r="1.3" fill="#ffffff" opacity="0.05"/><circle cx="800" cy="440" r="1.3" fill="#ffffff" opacity="0.05"/><circle cx="800" cy="480" r="1.3" fill="#ffffff" opacity="0.05"/><circle cx="800" cy="520" r="1.3" fill="#ffffff" opacity="0.05"/><circle cx="800" cy="560" r="1.3" fill="#ffffff" opacity="0.05"/><circle cx="800" cy="600" r="1.3" fill="#ffffff" opacity="0.05"/><circle cx="840" cy="40" r="1.3" fill="#ffffff" opacity="0.05"/><circle cx="840" cy="80" r="1.3" fill="#ffffff" opacity="0.05"/><circle cx="840" cy="120" r="1.3" fill="#ffffff" opacity="0.05"/><circle cx="840" cy="160" r="1.3" fill="#ffffff" opacity="0.05"/><circle cx="840" cy="200" r="1.3" fill="#ffffff" opacity="0.05"/><circle cx="840" cy="240" r="1.3" fill="#ffffff" opacity="0.05"/><circle cx="840" cy="280" r="1.3" fill="#ffffff" opacity="0.05"/><circle cx="840" cy="320" r="1.3" fill="#ffffff" opacity="0.05"/><circle cx="840" cy="360" r="1.3" fill="#ffffff" opacity="0.05"/><circle cx="840" cy="400" r="1.3" fill="#ffffff" opacity="0.05"/><circle cx="840" cy="440" r="1.3" fill="#ffffff" opacity="0.05"/><circle cx="840" cy="480" r="1.3" fill="#ffffff" opacity="0.05"/><circle cx="840" cy="520" r="1.3" fill="#ffffff" opacity="0.05"/><circle cx="840" cy="560" r="1.3" fill="#ffffff" opacity="0.05"/><circle cx="840" cy="600" r="1.3" fill="#ffffff" opacity="0.05"/><circle cx="880" cy="40" r="1.3" fill="#ffffff" opacity="0.05"/><circle cx="880" cy="80" r="1.3" fill="#ffffff" opacity="0.05"/><circle cx="880" cy="120" r="1.3" fill="#ffffff" opacity="0.05"/><circle cx="880" cy="160" r="1.3" fill="#ffffff" opacity="0.05"/><circle cx="880" cy="200" r="1.3" fill="#ffffff" opacity="0.05"/><circle cx="880" cy="240" r="1.3" fill="#ffffff" opacity="0.05"/><circle cx="880" cy="280" r="1.3" fill="#ffffff" opacity="0.05"/><circle cx="880" cy="320" r="1.3" fill="#ffffff" opacity="0.05"/><circle cx="880" cy="360" r="1.3" fill="#ffffff" opacity="0.05"/><circle cx="880" cy="400" r="1.3" fill="#ffffff" opacity="0.05"/><circle cx="880" cy="440" r="1.3" fill="#ffffff" opacity="0.05"/><circle cx="880" cy="480" r="1.3" fill="#ffffff" opacity="0.05"/><circle cx="880" cy="520" r="1.3" fill="#ffffff" opacity="0.05"/><circle cx="880" cy="560" r="1.3" fill="#ffffff" opacity="0.05"/><circle cx="880" cy="600" r="1.3" fill="#ffffff" opacity="0.05"/><circle cx="920" cy="40" r="1.3" fill="#ffffff" opacity="0.05"/><circle cx="920" cy="80" r="1.3" fill="#ffffff" opacity="0.05"/><circle cx="920" cy="120" r="1.3" fill="#ffffff" opacity="0.05"/><circle cx="920" cy="160" r="1.3" fill="#ffffff" opacity="0.05"/><circle cx="920" cy="200" r="1.3" fill="#ffffff" opacity="0.05"/><circle cx="920" cy="240" r="1.3" fill="#ffffff" opacity="0.05"/><circle cx="920" cy="280" r="1.3" fill="#ffffff" opacity="0.05"/><circle cx="920" cy="320" r="1.3" fill="#ffffff" opacity="0.05"/><circle cx="920" cy="360" r="1.3" fill="#ffffff" opacity="0.05"/><circle cx="920" cy="400" r="1.3" fill="#ffffff" opacity="0.05"/><circle cx="920" cy="440" r="1.3" fill="#ffffff" opacity="0.05"/><circle cx="920" cy="480" r="1.3" fill="#ffffff" opacity="0.05"/><circle cx="920" cy="520" r="1.3" fill="#ffffff" opacity="0.05"/><circle cx="920" cy="560" r="1.3" fill="#ffffff" opacity="0.05"/><circle cx="920" cy="600" r="1.3" fill="#ffffff" opacity="0.05"/><circle cx="960" cy="40" r="1.3" fill="#ffffff" opacity="0.05"/><circle cx="960" cy="80" r="1.3" fill="#ffffff" opacity="0.05"/><circle cx="960" cy="120" r="1.3" fill="#ffffff" opacity="0.05"/><circle cx="960" cy="160" r="1.3" fill="#ffffff" opacity="0.05"/><circle cx="960" cy="200" r="1.3" fill="#ffffff" opacity="0.05"/><circle cx="960" cy="240" r="1.3" fill="#ffffff" opacity="0.05"/><circle cx="960" cy="280" r="1.3" fill="#ffffff" opacity="0.05"/><circle cx="960" cy="320" r="1.3" fill="#ffffff" opacity="0.05"/><circle cx="960" cy="360" r="1.3" fill="#ffffff" opacity="0.05"/><circle cx="960" cy="400" r="1.3" fill="#ffffff" opacity="0.05"/><circle cx="960" cy="440" r="1.3" fill="#ffffff" opacity="0.05"/><circle cx="960" cy="480" r="1.3" fill="#ffffff" opacity="0.05"/><circle cx="960" cy="520" r="1.3" fill="#ffffff" opacity="0.05"/><circle cx="960" cy="560" r="1.3" fill="#ffffff" opacity="0.05"/><circle cx="960" cy="600" r="1.3" fill="#ffffff" opacity="0.05"/><circle cx="1000" cy="40" r="1.3" fill="#ffffff" opacity="0.05"/><circle cx="1000" cy="80" r="1.3" fill="#ffffff" opacity="0.05"/><circle cx="1000" cy="120" r="1.3" fill="#ffffff" opacity="0.05"/><circle cx="1000" cy="160" r="1.3" fill="#ffffff" opacity="0.05"/><circle cx="1000" cy="200" r="1.3" fill="#ffffff" opacity="0.05"/><circle cx="1000" cy="240" r="1.3" fill="#ffffff" opacity="0.05"/><circle cx="1000" cy="280" r="1.3" fill="#ffffff" opacity="0.05"/><circle cx="1000" cy="320" r="1.3" fill="#ffffff" opacity="0.05"/><circle cx="1000" cy="360" r="1.3" fill="#ffffff" opacity="0.05"/><circle cx="1000" cy="400" r="1.3" fill="#ffffff" opacity="0.05"/><circle cx="1000" cy="440" r="1.3" fill="#ffffff" opacity="0.05"/><circle cx="1000" cy="480" r="1.3" fill="#ffffff" opacity="0.05"/><circle cx="1000" cy="520" r="1.3" fill="#ffffff" opacity="0.05"/><circle cx="1000" cy="560" r="1.3" fill="#ffffff" opacity="0.05"/><circle cx="1000" cy="600" r="1.3" fill="#ffffff" opacity="0.05"/><circle cx="1040" cy="40" r="1.3" fill="#ffffff" opacity="0.05"/><circle cx="1040" cy="80" r="1.3" fill="#ffffff" opacity="0.05"/><circle cx="1040" cy="120" r="1.3" fill="#ffffff" opacity="0.05"/><circle cx="1040" cy="160" r="1.3" fill="#ffffff" opacity="0.05"/><circle cx="1040" cy="200" r="1.3" fill="#ffffff" opacity="0.05"/><circle cx="1040" cy="240" r="1.3" fill="#ffffff" opacity="0.05"/><circle cx="1040" cy="280" r="1.3" fill="#ffffff" opacity="0.05"/><circle cx="1040" cy="320" r="1.3" fill="#ffffff" opacity="0.05"/><circle cx="1040" cy="360" r="1.3" fill="#ffffff" opacity="0.05"/><circle cx="1040" cy="400" r="1.3" fill="#ffffff" opacity="0.05"/><circle cx="1040" cy="440" r="1.3" fill="#ffffff" opacity="0.05"/><circle cx="1040" cy="480" r="1.3" fill="#ffffff" opacity="0.05"/><circle cx="1040" cy="520" r="1.3" fill="#ffffff" opacity="0.05"/><circle cx="1040" cy="560" r="1.3" fill="#ffffff" opacity="0.05"/><circle cx="1040" cy="600" r="1.3" fill="#ffffff" opacity="0.05"/><circle cx="1080" cy="40" r="1.3" fill="#ffffff" opacity="0.05"/><circle cx="1080" cy="80" r="1.3" fill="#ffffff" opacity="0.05"/><circle cx="1080" cy="120" r="1.3" fill="#ffffff" opacity="0.05"/><circle cx="1080" cy="160" r="1.3" fill="#ffffff" opacity="0.05"/><circle cx="1080" cy="200" r="1.3" fill="#ffffff" opacity="0.05"/><circle cx="1080" cy="240" r="1.3" fill="#ffffff" opacity="0.05"/><circle cx="1080" cy="280" r="1.3" fill="#ffffff" opacity="0.05"/><circle cx="1080" cy="320" r="1.3" fill="#ffffff" opacity="0.05"/><circle cx="1080" cy="360" r="1.3" fill="#ffffff" opacity="0.05"/><circle cx="1080" cy="400" r="1.3" fill="#ffffff" opacity="0.05"/><circle cx="1080" cy="440" r="1.3" fill="#ffffff" opacity="0.05"/><circle cx="1080" cy="480" r="1.3" fill="#ffffff" opacity="0.05"/><circle cx="1080" cy="520" r="1.3" fill="#ffffff" opacity="0.05"/><circle cx="1080" cy="560" r="1.3" fill="#ffffff" opacity="0.05"/><circle cx="1080" cy="600" r="1.3" fill="#ffffff" opacity="0.05"/><circle cx="1120" cy="40" r="1.3" fill="#ffffff" opacity="0.05"/><circle cx="1120" cy="80" r="1.3" fill="#ffffff" opacity="0.05"/><circle cx="1120" cy="120" r="1.3" fill="#ffffff" opacity="0.05"/><circle cx="1120" cy="160" r="1.3" fill="#ffffff" opacity="0.05"/><circle cx="1120" cy="200" r="1.3" fill="#ffffff" opacity="0.05"/><circle cx="1120" cy="240" r="1.3" fill="#ffffff" opacity="0.05"/><circle cx="1120" cy="280" r="1.3" fill="#ffffff" opacity="0.05"/><circle cx="1120" cy="320" r="1.3" fill="#ffffff" opacity="0.05"/><circle cx="1120" cy="360" r="1.3" fill="#ffffff" opacity="0.05"/><circle cx="1120" cy="400" r="1.3" fill="#ffffff" opacity="0.05"/><circle cx="1120" cy="440" r="1.3" fill="#ffffff" opacity="0.05"/><circle cx="1120" cy="480" r="1.3" fill="#ffffff" opacity="0.05"/><circle cx="1120" cy="520" r="1.3" fill="#ffffff" opacity="0.05"/><circle cx="1120" cy="560" r="1.3" fill="#ffffff" opacity="0.05"/><circle cx="1120" cy="600" r="1.3" fill="#ffffff" opacity="0.05"/><circle cx="1160" cy="40" r="1.3" fill="#ffffff" opacity="0.05"/><circle cx="1160" cy="80" r="1.3" fill="#ffffff" opacity="0.05"/><circle cx="1160" cy="120" r="1.3" fill="#ffffff" opacity="0.05"/><circle cx="1160" cy="160" r="1.3" fill="#ffffff" opacity="0.05"/><circle cx="1160" cy="200" r="1.3" fill="#ffffff" opacity="0.05"/><circle cx="1160" cy="240" r="1.3" fill="#ffffff" opacity="0.05"/><circle cx="1160" cy="280" r="1.3" fill="#ffffff" opacity="0.05"/><circle cx="1160" cy="320" r="1.3" fill="#ffffff" opacity="0.05"/><circle cx="1160" cy="360" r="1.3" fill="#ffffff" opacity="0.05"/><circle cx="1160" cy="400" r="1.3" fill="#ffffff" opacity="0.05"/><circle cx="1160" cy="440" r="1.3" fill="#ffffff" opacity="0.05"/><circle cx="1160" cy="480" r="1.3" fill="#ffffff" opacity="0.05"/><circle cx="1160" cy="520" r="1.3" fill="#ffffff" opacity="0.05"/><circle cx="1160" cy="560" r="1.3" fill="#ffffff" opacity="0.05"/><circle cx="1160" cy="600" r="1.3" fill="#ffffff" opacity="0.05"/>
  <rect x="60" y="70" width="6" height="52" rx="3" fill="#22a15e"/>
  <text x="86" y="94" fill="#efab4d" font-family="Inter,sans-serif" font-size="17" font-weight="700" letter-spacing="2">BUSINESS LOANS</text>
  <text x="86" y="118" fill="#7d8b97" font-family="Inter,sans-serif" font-size="15" font-weight="600">TRUE NORTH BUSINESS LOAN</text>
  <text x="60" y="245" fill="#ffffff" font-family="Inter,system-ui,sans-serif" font-size="52" font-weight="800"><tspan x="60" dy="0">How to get a small</tspan><tspan x="60" dy="62">business loan in</tspan><tspan x="60" dy="62">Canada</tspan></text>
  
      <text x="780" y="250" fill="#9fb0bd" font-family="Inter,sans-serif" font-size="20" font-weight="600">What you can borrow</text>
      <rect x="780" y="285" width="360" height="16" rx="8" fill="#1f2c37"/>
      <rect x="780" y="285" width="360" height="16" rx="8" fill="url(#g1)"/>
      <text x="780" y="345" fill="#22a15e" font-family="Inter,sans-serif" font-size="40" font-weight="800">$5K</text>
      <text x="1140" y="345" text-anchor="end" fill="#efab4d" font-family="Inter,sans-serif" font-size="40" font-weight="800">$800K</text>
</svg>